# xmcd CD database file
# Copyright (C) 1993-1996 Ti Kan
#
# Track frame offsets:
# 150
# 11370
# 24145
# 36680
# 46135
# 57662
# 70255
# 81787
# 95602
# 106590
# 119730
#
# Disc length: 1750 seconds
# Revision: 0
# Processed by: cddbd v1.4b41PL1 Copyright (c) Steve Scherf et al.
# Submitted via: CDSpectrumPro v3.2.327
#
DISCID=8c06d40b
DTITLE=Wilf Carter - 32 Wonderful Years
DYEAR=1900
DGENRE=
TTITLE0=32 Wonderful Years
TTITLE1=What Price Must I Pay?
TTITLE2=Grandma's Courtin' Again
TTITLE3=Pretty Little Girl In Blue
TTITLE4=The Cattle Call
TTITLE5=A Bouquet Of Memories
TTITLE6=A Cashbox For A Heart
TTITLE7=Twenty-One Years
TTITLE8=I Got Nobody To Love Me
TTITLE9=Headline In The Papers ( A Story In The News )
TTITLE10=This Ole' House
EXTD=
EXTT0=
EXTT1=
EXTT2=
EXTT3=
EXTT4=
EXTT5=
EXTT6=
EXTT7=
EXTT8=
EXTT9=
EXTT10=
PLAYORDER=
